<svg width="898" height="807" viewBox="0 0 898 807" fill="none" xmlns="http://www.w3.org/2000/svg">
<path d="M861.7 571.9H266.2L296.1 511L792.9 510.1C809.7 510.1 824.1 498.1 827.1 481.5L895.9 96.4C897.7 86.3 895 75.9 888.4 68C885.138 64.112 881.069 60.9802 876.476 58.8217C871.883 56.6632 866.875 55.5298 861.8 55.5L229.8 53.4L224.4 28C221 11.8 206.4 0 189.8 0H35.3C25.9379 0 16.9592 3.71909 10.3391 10.3391C3.7191 16.9592 0 25.9379 0 35.3C0 44.6621 3.7191 53.6408 10.3391 60.2609C16.9592 66.8809 25.9379 70.6 35.3 70.6H161.2L184.8 182.8L242.9 464.1L168.1 586.2C164.216 591.443 161.876 597.668 161.346 604.172C160.815 610.675 162.116 617.197 165.1 623C171.1 634.9 183.2 642.4 196.6 642.4H259.4C246.012 660.182 238.78 681.841 238.8 704.1C238.8 760.7 284.8 806.7 341.4 806.7C398 806.7 444 760.7 444 704.1C444 681.8 436.6 660.1 423.4 642.4H584.5C571.112 660.182 563.88 681.841 563.9 704.1C563.9 760.7 609.9 806.7 666.5 806.7C723.1 806.7 769.1 760.7 769.1 704.1C769.1 681.8 761.7 660.1 748.5 642.4H861.8C881.2 642.4 897.1 626.6 897.1 607.1C897.042 597.748 893.287 588.798 886.655 582.203C880.023 575.609 871.053 571.905 861.7 571.9V571.9ZM244.5 123L820.3 124.9L763.9 440.7L311.6 441.5L244.5 123ZM341.4 735.7C324 735.7 309.8 721.5 309.8 704.1C309.8 686.7 324 672.5 341.4 672.5C358.8 672.5 373 686.7 373 704.1C373 712.481 369.671 720.518 363.745 726.445C357.818 732.371 349.781 735.7 341.4 735.7V735.7ZM666.5 735.7C649.1 735.7 634.9 721.5 634.9 704.1C634.9 686.7 649.1 672.5 666.5 672.5C683.9 672.5 698.1 686.7 698.1 704.1C698.1 712.481 694.771 720.518 688.845 726.445C682.918 732.371 674.881 735.7 666.5 735.7V735.7Z" fill="#939393"/>
</svg>
