<svg width="175" height="57" viewBox="0 0 175 57" fill="none" xmlns="http://www.w3.org/2000/svg">
<path d="M1.056 26.072C1.056 24.28 1.408 22.6907 2.112 21.304C2.83733 19.9173 3.81867 18.8507 5.056 18.104C6.29333 17.3573 7.66933 16.984 9.184 16.984C10.336 16.984 11.4347 17.24 12.48 17.752C13.5253 18.2427 14.3573 18.904 14.976 19.736V11.32H19.52V35H14.976V32.376C14.4213 33.2507 13.6427 33.9547 12.64 34.488C11.6373 35.0213 10.4747 35.288 9.152 35.288C7.65867 35.288 6.29333 34.904 5.056 34.136C3.81867 33.368 2.83733 32.2907 2.112 30.904C1.408 29.496 1.056 27.8853 1.056 26.072ZM15.008 26.136C15.008 25.048 14.7947 24.12 14.368 23.352C13.9413 22.5627 13.3653 21.9653 12.64 21.56C11.9147 21.1333 11.136 20.92 10.304 20.92C9.472 20.92 8.704 21.1227 8 21.528C7.296 21.9333 6.72 22.5307 6.272 23.32C5.84533 24.088 5.632 25.0053 5.632 26.072C5.632 27.1387 5.84533 28.0773 6.272 28.888C6.72 29.6773 7.296 30.2853 8 30.712C8.72533 31.1387 9.49333 31.352 10.304 31.352C11.136 31.352 11.9147 31.1493 12.64 30.744C13.3653 30.3173 13.9413 29.72 14.368 28.952C14.7947 28.1627 15.008 27.224 15.008 26.136ZM40.3755 25.752C40.3755 26.392 40.3328 26.968 40.2475 27.48H27.2875C27.3942 28.76 27.8422 29.7627 28.6315 30.488C29.4208 31.2133 30.3915 31.576 31.5435 31.576C33.2075 31.576 34.3915 30.8613 35.0955 29.432H39.9275C39.4155 31.1387 38.4342 32.5467 36.9835 33.656C35.5328 34.744 33.7515 35.288 31.6395 35.288C29.9328 35.288 28.3968 34.9147 27.0315 34.168C25.6875 33.4 24.6315 32.3227 23.8635 30.936C23.1168 29.5493 22.7435 27.9493 22.7435 26.136C22.7435 24.3013 23.1168 22.6907 23.8635 21.304C24.6102 19.9173 25.6555 18.8507 26.9995 18.104C28.3435 17.3573 29.8902 16.984 31.6395 16.984C33.3248 16.984 34.8288 17.3467 36.1515 18.072C37.4955 18.7973 38.5302 19.832 39.2555 21.176C40.0022 22.4987 40.3755 24.024 40.3755 25.752ZM35.7355 24.472C35.7142 23.32 35.2982 22.4027 34.4875 21.72C33.6768 21.016 32.6848 20.664 31.5115 20.664C30.4022 20.664 29.4635 21.0053 28.6955 21.688C27.9488 22.3493 27.4902 23.2773 27.3195 24.472H35.7355ZM51.0375 30.872L55.5175 17.272H60.2855L53.7255 35H48.2855L41.7575 17.272H46.5575L51.0375 30.872ZM76.5938 12.664V16.28H67.2818V22.008H74.4178V25.56H67.2818V35H62.8018V12.664H76.5938ZM84.2505 20.024C84.8265 19.0853 85.5732 18.3493 86.4905 17.816C87.4292 17.2827 88.4958 17.016 89.6905 17.016V21.72H88.5065C87.0985 21.72 86.0318 22.0507 85.3065 22.712C84.6025 23.3733 84.2505 24.5253 84.2505 26.168V35H79.7705V17.272H84.2505V20.024ZM109.444 17.272V35H104.932V32.76C104.356 33.528 103.599 34.136 102.66 34.584C101.743 35.0107 100.74 35.224 99.652 35.224C98.2653 35.224 97.0387 34.936 95.972 34.36C94.9053 33.7627 94.0627 32.8987 93.444 31.768C92.8467 30.616 92.548 29.2507 92.548 27.672V17.272H97.028V27.032C97.028 28.44 97.38 29.528 98.084 30.296C98.788 31.0427 99.748 31.416 100.964 31.416C102.201 31.416 103.172 31.0427 103.876 30.296C104.58 29.528 104.932 28.44 104.932 27.032V17.272H109.444ZM116.136 15.16C115.347 15.16 114.686 14.9147 114.152 14.424C113.64 13.912 113.384 13.2827 113.384 12.536C113.384 11.7893 113.64 11.1707 114.152 10.68C114.686 10.168 115.347 9.912 116.136 9.912C116.926 9.912 117.576 10.168 118.088 10.68C118.622 11.1707 118.888 11.7893 118.888 12.536C118.888 13.2827 118.622 13.912 118.088 14.424C117.576 14.9147 116.926 15.16 116.136 15.16ZM118.344 17.272V35H113.864V17.272H118.344ZM127.987 20.952V29.528C127.987 30.1253 128.125 30.5627 128.403 30.84C128.701 31.096 129.192 31.224 129.875 31.224H131.955V35H129.139C125.363 35 123.475 33.1653 123.475 29.496V20.952H121.363V17.272H123.475V12.888H127.987V17.272H131.955V20.952H127.987Z" fill="black"/>
<path fill-rule="evenodd" clip-rule="evenodd" d="M160.191 3.49028C159.248 4.36227 158.09 4.78185 156.145 4.95621C155.098 5.05009 153.908 5.01487 150.043 4.77597C147.193 4.59973 144.478 4.76497 142.737 5.22044C140.244 5.87279 137.871 7.39602 136.56 9.18569C136.014 9.93115 135.426 11.1865 135.202 12.0827C134.863 13.4367 134.965 15.3709 135.403 15.9134C135.654 16.2249 135.925 16.1832 136.732 15.709C139.853 13.8746 142.667 13.0133 147.9 12.2913C151.399 11.8086 153.001 11.3951 154.801 10.5108C156.095 9.87505 156.897 9.31572 158.071 8.2304C158.921 7.44496 158.86 7.76589 157.956 8.83756C156.487 10.5786 154.751 11.8493 152.024 13.1799C150.047 14.1452 148.237 14.8285 144.4 16.0592C137.954 18.1265 136.35 18.6789 136.35 18.832C136.35 18.8892 136.53 19.2076 136.751 19.5396C137.796 21.1146 139.721 22.6016 141.644 23.3201C143.054 23.8472 143.973 24.0007 145.712 24C147.024 23.9995 147.395 23.9679 148.299 23.78C150.547 23.3125 152.297 22.5446 154.706 20.9685C156.004 20.1197 157.672 18.5559 158.712 17.2149C161.729 13.3216 162.7 8.9097 161.499 4.55539C161.232 3.58424 160.979 2.9961 160.83 3.00002C160.769 3.00164 160.481 3.22222 160.191 3.49028Z" fill="#3BAD61"/>
<path fill-rule="evenodd" clip-rule="evenodd" d="M144.8 26.0127C143.833 26.1274 142.316 26.5313 141.335 26.9351C140.787 27.1609 139.602 27.7702 139.314 27.9738C139.209 28.0488 139.076 28.1407 139.021 28.1779C138.547 28.4944 138.192 28.7693 138.192 28.8202C138.192 28.8538 138.137 28.8999 138.069 28.9225C137.946 28.9639 136.964 29.9623 136.495 30.5229C135.794 31.3617 134.813 33.1635 134.475 34.2344C134.319 34.7307 134.301 35.3976 134.437 35.6752C134.584 35.9767 134.809 36.0185 136.293 36.0195C138.062 36.0207 139.889 36.1751 141.56 36.4645C142.345 36.6005 143.899 36.9501 144.447 37.114C144.694 37.188 145.055 37.2957 145.249 37.3534C145.971 37.5681 147.421 38.0684 147.976 38.2941C149.753 39.0171 150.569 39.3652 152.178 40.0879C152.994 40.4544 154.308 41.016 155.643 41.5683C157.063 42.1561 158.774 42.6458 160.486 42.9546C161.464 43.1309 164.027 43.2025 165.022 43.0814C166.24 42.9332 168.246 42.5158 168.833 42.2886C168.949 42.2437 168.949 42.2483 168.847 42.3714C168.579 42.6953 166.873 43.4175 165.427 43.8192C163.52 44.3489 161.583 44.5895 159.234 44.5885C157.514 44.5878 155.197 44.3982 153.654 44.1319C153.318 44.0741 152.828 43.9975 152.563 43.9619C151.583 43.8297 149.726 43.4568 148.264 43.0985C147.859 42.9991 147.397 42.897 147.238 42.8716C147.079 42.8463 146.704 42.7629 146.404 42.6864C146.104 42.6099 145.512 42.465 145.089 42.3644C144.665 42.2639 143.987 42.0949 143.581 41.9891C143.175 41.8832 142.497 41.7159 142.073 41.6174C141.65 41.5188 140.957 41.352 140.533 41.2467C138.911 40.8431 136.957 40.3927 136.395 40.2927C136.166 40.2519 135.757 40.1595 135.486 40.0873C135.216 40.0151 134.898 39.9559 134.781 39.9557C134.663 39.9555 134.221 39.8777 133.798 39.7828C133.376 39.6879 132.77 39.5824 132.451 39.5484C132.133 39.5143 131.555 39.4413 131.166 39.3861C129.922 39.209 127.986 39.119 126.451 39.1668C124.431 39.2297 123.343 39.3723 122.12 39.7341C121.803 39.8281 121.471 39.9198 121.382 39.938C120.514 40.1169 117.571 41.6035 117.18 42.0607C117.116 42.1352 117.037 42.1963 117.005 42.1963C116.918 42.1963 116.072 42.9404 115.557 43.4694C115.173 43.8644 115.102 43.975 115.042 44.2743C114.949 44.7341 115.007 45.0633 115.249 45.4444C115.525 45.8806 115.913 46.098 116.41 46.0958C116.917 46.0935 117.099 45.9836 117.89 45.2017C120.265 42.8556 123.028 41.7516 127.294 41.4452C128.485 41.3595 130.204 41.4071 132.021 41.576C133.389 41.7031 133.238 41.6008 133.383 42.5018C133.738 44.7161 134.629 47.1447 135.73 48.9005C136.174 49.6088 136.087 49.4847 136.69 50.2668C139.499 53.9045 144.056 56.3198 149.187 56.8895C150.613 57.0479 153.433 57.0338 154.86 56.8613C159.784 56.2656 164.485 54.2049 167.99 51.1044C171.664 47.8545 173.965 43.7907 174.888 38.9206C175.101 37.7951 175.026 37.5403 174.527 37.702C173.312 38.0955 173.346 38.0892 172.388 38.0873C171.345 38.0853 170.501 37.9283 169.623 37.5732C169.356 37.4649 169.118 37.3763 169.094 37.3763C168.985 37.3763 167.527 36.6375 166.966 36.2978C165.572 35.4539 165.219 35.2161 163.373 33.8802C162.639 33.3486 162.588 33.3116 162.207 33.0316C161.918 32.8188 160.988 32.1433 160.619 31.8775C160.541 31.8215 160.309 31.6535 160.104 31.5042C159.898 31.3548 159.64 31.1763 159.531 31.1074C159.421 31.0385 159.272 30.9239 159.199 30.8528C159.126 30.7817 159.045 30.7235 159.018 30.7235C158.992 30.7235 158.876 30.6471 158.76 30.5538C158.644 30.4604 158.526 30.3841 158.498 30.3841C158.469 30.3841 158.351 30.3077 158.235 30.2143C158.12 30.121 158.001 30.0437 157.973 30.0427C157.944 30.0417 157.807 29.9501 157.668 29.8391C157.529 29.7281 157.39 29.6373 157.359 29.6373C157.328 29.6373 157.21 29.563 157.098 29.4723C156.985 29.3814 156.821 29.2749 156.733 29.2355C156.645 29.196 156.4 29.0581 156.188 28.9289C155.438 28.4709 153.917 27.7088 152.948 27.3045C151.989 26.9044 150.227 26.3598 149.644 26.2832C149.467 26.26 149.107 26.1933 148.842 26.135C148.497 26.0589 147.888 26.0228 146.693 26.0075C145.775 25.9957 144.923 25.9981 144.8 26.0127Z" fill="#3BAD61"/>
</svg>
