<svg width="60" height="31" viewBox="0 0 60 31" fill="none" xmlns="http://www.w3.org/2000/svg">
<path fill-rule="evenodd" clip-rule="evenodd" d="M29.7999 0.0127173C28.8329 0.127377 27.3159 0.531301 26.3354 0.935089C25.7873 1.16088 24.6018 1.77016 24.3145 1.97382C24.2086 2.04883 24.0764 2.14068 24.0206 2.17795C23.5466 2.49437 23.1917 2.76931 23.1917 2.82016C23.1917 2.85383 23.1367 2.89985 23.0694 2.92246C22.9462 2.96387 21.9641 3.96234 21.4953 4.52295C20.7938 5.36175 19.8132 7.16352 19.4754 8.23443C19.3189 8.73074 19.3009 9.39759 19.4366 9.67518C19.5839 9.97673 19.8092 10.0185 21.2926 10.0195C23.0617 10.0207 24.889 10.1751 26.56 10.4645C27.3455 10.6005 28.8991 10.9501 29.4471 11.114C29.6941 11.188 30.055 11.2957 30.249 11.3534C30.9707 11.5681 32.4208 12.0684 32.9757 12.2941C34.7533 13.0171 35.5687 13.3652 37.178 14.0879C37.9941 14.4544 39.3085 15.016 40.6425 15.5683C42.0629 16.1561 43.7736 16.6458 45.4864 16.9546C46.4639 17.1309 49.0267 17.2025 50.0218 17.0814C51.2402 16.9332 53.2465 16.5158 53.8327 16.2886C53.9486 16.2437 53.9493 16.2483 53.8474 16.3714C53.5794 16.6953 51.8732 17.4175 50.4266 17.8192C48.5196 18.3489 46.583 18.5895 44.2338 18.5885C42.5143 18.5878 40.1969 18.3982 38.6537 18.1319C38.3184 18.0741 37.8276 17.9975 37.563 17.9619C36.5829 17.8297 34.7259 17.4568 33.2644 17.0985C32.8586 16.9991 32.3967 16.897 32.2379 16.8716C32.0791 16.8463 31.7038 16.7629 31.4039 16.6864C31.1039 16.6099 30.5121 16.465 30.0886 16.3644C29.6652 16.2639 28.9867 16.0949 28.5809 15.9891C28.1751 15.8832 27.4967 15.7159 27.0732 15.6174C26.6498 15.5188 25.9569 15.352 25.5335 15.2467C23.9111 14.8431 21.9571 14.3927 21.3953 14.2927C21.1659 14.2519 20.7569 14.1595 20.4864 14.0873C20.2159 14.0151 19.8983 13.9559 19.7806 13.9557C19.663 13.9555 19.2211 13.8777 18.7985 13.7828C18.3759 13.6879 17.7696 13.5824 17.4511 13.5484C17.1327 13.5143 16.5546 13.4413 16.1665 13.3861C14.9216 13.209 12.9859 13.119 11.4509 13.1668C9.43133 13.2297 8.34265 13.3723 7.12025 13.7341C6.80267 13.8281 6.47066 13.9198 6.38244 13.938C5.5142 14.1169 2.57097 15.6035 2.17993 16.0607C2.11616 16.1352 2.03731 16.1963 2.00472 16.1963C1.91798 16.1963 1.07174 16.9404 0.557004 17.4694C0.172636 17.8644 0.101809 17.975 0.0416294 18.2743C-0.0508215 18.7341 0.00749489 19.0633 0.24892 19.4444C0.525182 19.8806 0.912951 20.098 1.41024 20.0958C1.91702 20.0935 2.09884 19.9836 2.89028 19.2017C5.26462 16.8556 8.02808 15.7516 12.2937 15.4452C13.4854 15.3595 15.2044 15.4071 17.021 15.576C18.389 15.7031 18.2384 15.6008 18.3828 16.5018C18.7379 18.7161 19.6286 21.1447 20.7298 22.9005C21.174 23.6088 21.0867 23.4847 21.6905 24.2668C24.4989 27.9045 29.0563 30.3198 34.187 30.8895C35.6134 31.0479 38.4328 31.0338 39.8596 30.8613C44.7843 30.2656 49.4845 28.2049 52.9897 25.1044C56.664 21.8545 58.9648 17.7907 59.8879 12.9206C60.1012 11.7951 60.0257 11.5403 59.5265 11.702C58.3115 12.0955 58.3465 12.0892 57.3877 12.0873C56.3452 12.0853 55.501 11.9283 54.6234 11.5732C54.3558 11.4649 54.1177 11.3763 54.0943 11.3763C53.9852 11.3763 52.5275 10.6375 51.9663 10.2978C50.5723 9.45387 50.2188 9.21606 48.3731 7.8802C47.6387 7.34865 47.5878 7.31158 47.2071 7.03162C46.9177 6.81879 45.9881 6.14326 45.619 5.87755C45.5412 5.82154 45.3094 5.65352 45.1037 5.50418C44.8982 5.35483 44.6404 5.17628 44.5308 5.10738C44.4212 5.03848 44.272 4.92388 44.1992 4.85281C44.1263 4.78166 44.045 4.72348 44.0185 4.72348C43.9919 4.72348 43.8756 4.64711 43.7599 4.55377C43.6442 4.46042 43.5262 4.38405 43.4976 4.38405C43.4689 4.38405 43.3509 4.30768 43.2352 4.21434C43.1195 4.12099 43.0014 4.04374 42.9726 4.04272C42.9437 4.0417 42.8067 3.95005 42.6681 3.83906C42.5295 3.72807 42.3905 3.6373 42.3591 3.6373C42.3277 3.6373 42.21 3.56303 42.0976 3.47227C41.9851 3.38144 41.821 3.27492 41.733 3.23548C41.6449 3.19604 41.3996 3.0581 41.1879 2.92891C40.4376 2.47095 38.9174 1.70879 37.9479 1.30446C36.9888 0.904403 35.2269 0.359821 34.6438 0.283177C34.4674 0.260028 34.1065 0.193295 33.8419 0.13498C33.4969 0.0589476 32.8883 0.0228327 31.6926 0.00749037C30.7751 -0.00425396 29.9234 -0.00194611 29.7999 0.0127173Z" fill="#3BAD61"/>
</svg>
